<svg width="80.274" height="73.584" viewBox="0 0 80.274 73.584" xmlns="http://www.w3.org/2000/svg"><g id="svgGroup" stroke-linecap="round" fill-rule="nonzero" font-size="9pt" stroke="#000" stroke-width="1mm" fill="#454544" style="stroke:#000;stroke-width:1mm;fill:#454544"><path d="M 67.725 72.949 L 61.328 72.949 Q 60.62 72.76 60.095 72.48 A 4.221 4.221 0 0 1 60.059 72.461 Q 59.649 72.238 59.552 71.618 A 2.756 2.756 0 0 1 59.522 71.191 Q 59.522 70.619 59.812 70.315 A 0.999 0.999 0 0 1 60.205 70.068 Q 60.793 69.859 61.578 69.739 A 11.232 11.232 0 0 1 61.841 69.702 Q 62.793 69.58 63.77 69.312 A 2.443 2.443 0 0 0 65.249 68.173 A 3.186 3.186 0 0 0 65.283 68.115 A 129.485 129.485 0 0 1 65.772 63.062 A 92.18 92.18 0 0 1 66.504 58.008 L 66.504 46.875 A 1.046 1.046 0 0 0 66.5 46.792 Q 66.49 46.669 66.455 46.454 A 11.617 11.617 0 0 0 66.431 46.314 A 31.637 31.637 0 0 1 66.357 45.88 A 40.105 40.105 0 0 1 66.284 45.41 A 8.009 8.009 0 0 0 66.147 44.705 A 7.119 7.119 0 0 0 66.089 44.482 Q 65.967 44.043 65.918 43.799 Q 65.479 42.188 64.99 40.772 A 10.414 10.414 0 0 0 64.223 39.05 A 8.938 8.938 0 0 0 63.721 38.257 A 7.417 7.417 0 0 0 61.768 36.377 A 7.379 7.379 0 0 0 60.382 35.662 Q 59.695 35.39 58.887 35.205 A 4.828 4.828 0 0 1 57.69 34.863 A 2.886 2.886 0 0 0 56.963 34.659 A 3.831 3.831 0 0 0 56.397 34.619 L 55.908 34.619 A 0.218 0.218 0 0 0 55.857 34.628 Q 55.714 34.665 55.298 34.863 Q 54.893 35.056 54.747 35.158 A 0.446 0.446 0 0 0 54.688 35.205 A 9.889 9.889 0 0 1 54.257 35.312 Q 53.995 35.371 53.697 35.425 A 18.196 18.196 0 0 1 53.418 35.474 A 23.31 23.31 0 0 0 51.953 35.767 A 11.727 11.727 0 0 0 50.728 36.122 A 10.623 10.623 0 0 0 50.562 36.182 A 4.452 4.452 0 0 0 50.088 36.387 Q 49.855 36.506 49.67 36.641 A 2.327 2.327 0 0 0 49.512 36.768 Q 48.584 37.647 48.096 38.867 Q 47.607 40.088 47.388 41.431 A 21.364 21.364 0 0 0 47.119 44.092 A 74.692 74.692 0 0 0 47.083 45.361 A 58.682 58.682 0 0 0 47.07 46.533 L 47.07 54.639 Q 47.07 54.759 47.037 55.06 A 17.012 17.012 0 0 1 47.022 55.2 Q 46.973 55.615 46.948 56.079 Q 46.924 56.543 46.875 56.934 Q 46.826 57.324 46.826 57.422 L 46.826 57.617 L 46.826 57.666 A 45.606 45.606 0 0 0 46.828 58.011 Q 46.832 58.606 46.851 59.668 A 2096.569 2096.569 0 0 1 46.887 61.861 A 2370.667 2370.667 0 0 1 46.899 62.622 A 164.693 164.693 0 0 0 46.93 64.124 A 141.84 141.84 0 0 0 46.973 65.552 A 96.425 96.425 0 0 0 46.996 66.154 Q 47.026 66.899 47.057 67.284 A 7.572 7.572 0 0 0 47.07 67.432 A 4.348 4.348 0 0 0 47.276 67.824 Q 47.392 68.022 47.542 68.242 A 10.572 10.572 0 0 0 47.876 68.701 A 5.753 5.753 0 0 0 48.203 69.093 Q 48.549 69.47 48.865 69.646 A 1.549 1.549 0 0 0 48.926 69.678 A 1.665 1.665 0 0 0 49.057 69.723 Q 49.27 69.788 49.667 69.87 A 19.875 19.875 0 0 0 49.927 69.922 A 19.06 19.06 0 0 1 51.465 70.288 A 9.775 9.775 0 0 1 52.247 70.542 A 7.441 7.441 0 0 1 52.857 70.801 Q 53.353 71.039 53.446 71.342 A 0.484 0.484 0 0 1 53.467 71.484 A 0.936 0.936 0 0 1 53.388 71.873 A 0.909 0.909 0 0 1 53.198 72.144 A 2.02 2.02 0 0 1 52.749 72.479 A 2.452 2.452 0 0 1 52.539 72.583 A 4.681 4.681 0 0 1 51.733 72.852 Q 51.359 72.94 51.124 72.948 A 1.351 1.351 0 0 1 51.074 72.949 A 4.088 4.088 0 0 1 50.14 72.846 A 3.484 3.484 0 0 1 49.561 72.656 A 3.56 3.56 0 0 0 48.145 72.363 A 1.541 1.541 0 0 0 47.674 72.433 A 1.39 1.39 0 0 0 47.437 72.534 A 1.565 1.565 0 0 1 47.165 72.651 A 1.125 1.125 0 0 1 46.826 72.705 A 3.235 3.235 0 0 1 46.55 72.694 Q 46.423 72.683 46.315 72.662 A 1.36 1.36 0 0 1 46.118 72.607 A 4.951 4.951 0 0 1 45.773 72.466 A 6.075 6.075 0 0 1 45.557 72.363 A 2.862 2.862 0 0 0 45.239 72.229 Q 45.071 72.169 44.879 72.121 A 4.33 4.33 0 0 0 44.873 72.119 Q 44.611 72.054 44.238 72.032 A 6.788 6.788 0 0 0 43.848 72.022 Q 42.676 72.022 41.504 72.192 Q 40.332 72.363 39.209 72.363 Q 38.764 72.363 38.436 72.246 A 1.521 1.521 0 0 1 38.306 72.192 Q 37.94 72.022 37.549 72.022 A 6.991 6.991 0 0 0 36.685 72.073 A 5.462 5.462 0 0 0 36.035 72.192 Q 35.352 72.363 34.668 72.363 A 7.424 7.424 0 0 1 33.803 72.311 A 8.958 8.958 0 0 1 33.325 72.241 A 1.057 1.057 0 0 1 33.007 72.138 Q 32.703 71.976 32.636 71.608 A 1.242 1.242 0 0 1 32.617 71.387 A 1.958 1.958 0 0 1 32.663 70.948 Q 32.784 70.421 33.228 70.19 A 4.607 4.607 0 0 1 34.057 69.861 A 5.765 5.765 0 0 1 34.619 69.727 Q 35.4 69.58 36.182 69.409 A 2.068 2.068 0 0 0 36.686 69.233 A 1.483 1.483 0 0 0 37.305 68.652 Q 37.744 68.066 37.964 67.236 Q 38.184 66.406 38.281 65.527 Q 38.379 64.648 38.428 63.794 A 129.456 129.456 0 0 1 38.475 63.006 Q 38.499 62.633 38.522 62.3 A 78.028 78.028 0 0 1 38.525 62.256 A 0.118 0.118 0 0 1 38.531 62.227 Q 38.557 62.139 38.696 61.841 Q 38.831 61.552 38.86 61.43 A 0.244 0.244 0 0 0 38.867 61.377 L 38.867 61.279 L 38.867 61.035 A 0.173 0.173 0 0 0 38.855 60.976 Q 38.825 60.894 38.72 60.769 A 1.941 1.941 0 0 0 38.696 60.742 A 1.639 1.639 0 0 1 38.63 60.661 Q 38.537 60.54 38.527 60.466 A 0.127 0.127 0 0 1 38.525 60.449 A 2.938 2.938 0 0 1 38.501 60.306 Q 38.465 60.06 38.428 59.624 A 24.422 24.422 0 0 1 38.428 59.619 A 124.564 124.564 0 0 1 38.379 59.015 A 148.455 148.455 0 0 1 38.33 58.374 A 222.679 222.679 0 0 0 38.257 57.413 A 198.347 198.347 0 0 0 38.232 57.105 A 26.174 26.174 0 0 1 38.211 56.819 Q 38.184 56.421 38.184 56.201 A 47.442 47.442 0 0 1 38.185 55.843 Q 38.19 55.243 38.208 54.273 Q 38.232 52.979 38.281 51.587 Q 38.33 50.195 38.355 48.999 A 285.014 285.014 0 0 0 38.364 48.514 Q 38.375 47.904 38.378 47.582 A 20.863 20.863 0 0 0 38.379 47.412 L 38.428 46.191 L 38.428 35.205 A 0.174 0.174 0 0 0 38.451 35.174 Q 38.484 35.122 38.525 35.008 A 2.849 2.849 0 0 0 38.55 34.937 A 14.965 14.965 0 0 0 38.623 34.711 A 17.276 17.276 0 0 0 38.696 34.473 A 7.086 7.086 0 0 0 38.778 34.177 A 5.876 5.876 0 0 0 38.818 34.009 A 7.583 7.583 0 0 0 38.835 33.932 Q 38.867 33.782 38.867 33.742 A 0.106 0.106 0 0 0 38.867 33.74 L 38.867 30.127 L 38.867 26.416 A 1.165 1.165 0 0 0 38.861 26.311 Q 38.845 26.14 38.786 25.82 A 16.602 16.602 0 0 0 38.745 25.61 Q 38.623 25 38.525 24.854 L 38.525 16.895 A 3.128 3.128 0 0 0 38.524 16.811 Q 38.52 16.651 38.501 16.333 A 19.643 19.643 0 0 0 38.471 15.9 A 25.178 25.178 0 0 0 38.428 15.43 A 14.876 14.876 0 0 0 38.343 14.739 A 12.858 12.858 0 0 0 38.306 14.502 A 19.941 19.941 0 0 0 38.271 14.298 Q 38.223 14.028 38.187 13.882 A 2.439 2.439 0 0 0 38.184 13.867 A 0.337 0.337 0 0 0 38.178 13.814 Q 38.163 13.722 38.104 13.535 A 7.657 7.657 0 0 0 38.062 13.403 Q 37.94 13.037 37.94 12.988 A 0.8 0.8 0 0 0 37.937 12.934 Q 37.929 12.817 37.891 12.554 A 16.963 16.963 0 0 0 37.891 12.549 A 26.822 26.822 0 0 1 37.842 12.189 A 35.699 35.699 0 0 1 37.793 11.792 A 56.035 56.035 0 0 0 37.744 11.389 A 46.585 46.585 0 0 0 37.695 11.011 A 11.154 11.154 0 0 1 37.674 10.844 Q 37.647 10.609 37.647 10.498 A 1.729 1.729 0 0 0 36.666 9.448 A 2.307 2.307 0 0 0 36.475 9.375 Q 35.596 9.082 34.692 8.862 A 6.411 6.411 0 0 1 33.664 8.522 A 5.331 5.331 0 0 1 33.081 8.228 A 1.35 1.35 0 0 1 32.457 7.399 Q 32.386 7.153 32.375 6.852 A 3.103 3.103 0 0 1 32.373 6.738 A 4.437 4.437 0 0 1 32.385 6.401 Q 32.397 6.242 32.422 6.103 A 2.343 2.343 0 0 1 32.446 5.981 A 0.616 0.616 0 0 1 32.544 5.771 Q 32.662 5.601 32.906 5.424 A 3.069 3.069 0 0 1 33.057 5.322 A 0.209 0.209 0 0 0 33.088 5.318 Q 33.189 5.3 33.569 5.2 A 25.586 25.586 0 0 1 33.788 5.144 Q 33.998 5.09 34.151 5.056 A 5.861 5.861 0 0 1 34.277 5.029 A 4.529 4.529 0 0 0 35.23 4.791 A 3.605 3.605 0 0 0 36.035 4.37 A 116.625 116.625 0 0 0 36.804 3.827 A 155.644 155.644 0 0 0 37.647 3.223 Q 38.184 2.832 38.818 2.783 Q 39.453 2.734 40.088 2.539 Q 40.82 2.393 41.455 2.1 A 87.721 87.721 0 0 0 42.749 1.489 A 10.497 10.497 0 0 1 44.092 0.952 Q 44.775 0.732 45.606 0.732 A 2.694 2.694 0 0 1 46.188 0.792 Q 46.57 0.876 46.853 1.081 A 1.58 1.58 0 0 1 47.046 1.245 A 2.848 2.848 0 0 1 47.715 2.318 A 3.425 3.425 0 0 1 47.778 2.515 A 6.266 6.266 0 0 1 48.006 3.809 A 7.165 7.165 0 0 1 48.023 4.126 A 64.43 64.43 0 0 1 48.04 4.914 Q 48.047 5.287 48.047 5.62 A 38.986 38.986 0 0 1 48.047 5.664 L 48.047 5.908 Q 47.754 9.131 47.583 12.402 Q 47.412 15.674 47.412 18.897 Q 47.412 19.58 47.559 20.142 A 4.584 4.584 0 0 1 47.698 21.064 A 5.301 5.301 0 0 1 47.705 21.338 A 17.348 17.348 0 0 1 47.559 23.584 A 16.981 16.981 0 0 0 47.412 25.781 L 47.412 27.002 A 0.446 0.446 0 0 0 47.417 27.058 Q 47.436 27.189 47.518 27.557 A 31.696 31.696 0 0 0 47.559 27.734 Q 47.705 28.369 47.705 28.564 A 0.338 0.338 0 0 1 47.7 28.615 Q 47.679 28.744 47.576 29.094 A 17.172 17.172 0 0 1 47.559 29.15 A 31.06 31.06 0 0 0 47.524 29.266 Q 47.436 29.563 47.417 29.653 A 0.217 0.217 0 0 0 47.412 29.687 Q 47.412 29.825 47.369 30.432 A 83.266 83.266 0 0 1 47.363 30.518 A 28.561 28.561 0 0 0 47.342 30.841 Q 47.315 31.299 47.315 31.592 A 8.473 8.473 0 0 0 47.319 31.862 Q 47.328 32.143 47.354 32.517 A 28.512 28.512 0 0 0 47.363 32.642 A 94.103 94.103 0 0 1 47.38 32.869 Q 47.408 33.257 47.412 33.37 A 0.887 0.887 0 0 1 47.412 33.398 A 0.471 0.471 0 0 0 47.416 33.451 Q 47.428 33.56 47.485 33.789 A 4.917 4.917 0 0 0 47.596 34.165 A 5.877 5.877 0 0 0 47.681 34.399 Q 47.803 34.717 47.949 34.961 A 0.75 0.75 0 0 0 48.029 35.072 Q 48.079 35.128 48.133 35.161 A 0.303 0.303 0 0 0 48.291 35.205 A 0.515 0.515 0 0 0 48.337 35.203 Q 48.448 35.192 48.709 35.141 A 13.563 13.563 0 0 0 48.755 35.132 A 2.544 2.544 0 0 0 48.881 35.104 Q 49.073 35.055 49.141 34.997 A 0.118 0.118 0 0 0 49.17 34.961 L 52.295 31.836 Q 53.086 31.678 53.652 31.408 A 3.663 3.663 0 0 0 53.906 31.274 A 17.256 17.256 0 0 0 54.49 30.921 Q 54.785 30.735 55.105 30.519 A 29.599 29.599 0 0 0 55.322 30.371 A 1.089 1.089 0 0 1 55.346 30.349 Q 55.405 30.292 55.555 30.162 A 27.032 27.032 0 0 1 55.566 30.151 Q 55.701 30.034 55.87 29.893 A 24.842 24.842 0 0 1 56.03 29.761 A 7.542 7.542 0 0 0 56.266 29.56 Q 56.39 29.45 56.494 29.346 A 3.417 3.417 0 0 1 56.562 29.28 Q 56.686 29.162 56.73 29.151 A 0.034 0.034 0 0 1 56.738 29.15 A 0.912 0.912 0 0 1 56.823 29.128 Q 56.949 29.099 57.176 29.07 A 10.059 10.059 0 0 1 57.324 29.053 A 54.542 54.542 0 0 1 57.782 29.004 A 68.545 68.545 0 0 1 58.276 28.955 A 68.545 68.545 0 0 0 58.771 28.906 A 54.542 54.542 0 0 0 59.229 28.857 A 28.81 28.81 0 0 1 59.381 28.841 Q 59.662 28.811 59.752 28.809 A 0.537 0.537 0 0 1 59.766 28.809 A 7.118 7.118 0 0 0 60.524 28.68 A 5.212 5.212 0 0 0 61.231 28.467 Q 61.865 28.223 62.549 28.223 A 6.142 6.142 0 0 1 63.566 28.311 A 7.439 7.439 0 0 1 64.087 28.418 A 42.835 42.835 0 0 1 64.862 28.613 A 34.027 34.027 0 0 1 65.576 28.809 A 16.527 16.527 0 0 1 67.78 29.654 A 12.065 12.065 0 0 1 69.849 30.884 A 11.951 11.951 0 0 1 72.526 33.622 A 11.329 11.329 0 0 1 72.705 33.887 A 13.675 13.675 0 0 1 74.235 37.066 A 15.66 15.66 0 0 1 74.439 37.72 A 28.357 28.357 0 0 1 75.198 41.202 A 32.411 32.411 0 0 1 75.342 42.236 L 75.342 53.174 A 8.112 8.112 0 0 0 75.343 53.318 Q 75.347 53.543 75.363 53.934 A 71.082 71.082 0 0 0 75.366 54.028 A 417.7 417.7 0 0 1 75.403 54.971 A 468.305 468.305 0 0 1 75.415 55.298 Q 75.44 55.957 75.488 56.567 A 20.321 20.321 0 0 0 75.513 56.85 Q 75.549 57.239 75.586 57.422 L 75.586 58.35 L 75.342 68.408 A 1.041 1.041 0 0 0 75.438 68.866 Q 75.555 69.108 75.814 69.266 A 1.564 1.564 0 0 0 76.123 69.409 A 11.508 11.508 0 0 0 77.255 69.732 A 13.53 13.53 0 0 0 77.808 69.849 A 9.114 9.114 0 0 1 79.094 70.187 A 8.042 8.042 0 0 1 79.492 70.337 Q 80.273 70.654 80.273 71.484 Q 80.273 72.119 79.761 72.461 A 3.688 3.688 0 0 1 78.89 72.884 A 4.366 4.366 0 0 1 78.589 72.974 A 7.432 7.432 0 0 1 77.271 73.193 A 28.669 28.669 0 0 1 76.961 73.215 Q 76.526 73.242 76.27 73.242 A 0.244 0.244 0 0 0 76.216 73.25 Q 76.125 73.271 75.938 73.353 A 6.234 6.234 0 0 0 75.806 73.413 Q 75.517 73.548 75.395 73.576 A 0.244 0.244 0 0 1 75.342 73.584 L 74.805 73.584 L 74.121 73.584 A 0.075 0.075 0 0 1 74.094 73.577 Q 74.028 73.549 73.853 73.413 A 2.018 2.018 0 0 0 73.762 73.347 Q 73.63 73.255 73.555 73.244 A 0.134 0.134 0 0 0 73.535 73.242 L 70.508 73.242 Q 70.416 73.242 70.069 73.199 A 23.828 23.828 0 0 1 70.02 73.193 A 39.046 39.046 0 0 0 69.611 73.145 A 50.339 50.339 0 0 0 69.165 73.096 A 78.637 78.637 0 0 1 68.713 73.047 A 66.694 66.694 0 0 1 68.286 72.998 A 16.05 16.05 0 0 0 68.106 72.978 Q 67.884 72.954 67.769 72.95 A 1.243 1.243 0 0 0 67.725 72.949 Z M 8.643 58.887 L 8.643 58.643 Q 8.643 58.601 8.554 58.33 A 15.727 15.727 0 0 0 8.521 58.228 A 3.823 3.823 0 0 0 8.468 58.08 Q 8.388 57.869 8.319 57.784 A 0.272 0.272 0 0 0 8.301 57.764 L 8.301 41.26 A 8.481 8.481 0 0 1 8.007 39.7 A 10.67 10.67 0 0 1 7.959 38.672 L 7.959 37.842 A 3.538 3.538 0 0 1 7.997 37.334 A 4.393 4.393 0 0 1 8.057 37.012 A 0.558 0.558 0 0 0 7.816 36.67 Q 7.594 36.515 7.178 36.45 Q 6.422 36.332 5.803 36.328 A 6.674 6.674 0 0 0 5.762 36.328 L 5.273 36.328 A 6.598 6.598 0 0 0 3.174 36.67 Q 2.148 37.012 1.074 37.012 A 1.419 1.419 0 0 1 0.766 36.981 Q 0.381 36.895 0.22 36.572 A 2.102 2.102 0 0 1 0.006 35.765 A 2.518 2.518 0 0 1 0 35.596 Q 0 35.105 0.187 34.789 A 1.009 1.009 0 0 1 0.415 34.522 A 2.311 2.311 0 0 1 1.043 34.157 A 2.987 2.987 0 0 1 1.44 34.033 Q 2.051 33.887 2.734 33.838 A 7.486 7.486 0 0 0 3.372 33.766 A 5.475 5.475 0 0 0 3.955 33.643 A 5.952 5.952 0 0 0 5.518 32.997 A 4.884 4.884 0 0 0 6.86 31.812 Q 7.91 30.469 8.301 28.809 Q 8.226 28.51 8.209 27.926 A 12.906 12.906 0 0 1 8.203 27.539 L 8.203 25.586 L 8.203 23.633 A 14.054 14.054 0 0 1 8.209 23.203 Q 8.221 22.812 8.257 22.552 A 2.248 2.248 0 0 1 8.301 22.314 Q 8.341 22.034 8.48 21.326 A 86.304 86.304 0 0 1 8.545 20.996 Q 8.74 20.02 8.984 18.97 A 94.93 94.93 0 0 1 9.351 17.45 A 82.575 82.575 0 0 1 9.473 16.968 A 26.933 26.933 0 0 1 9.582 16.555 Q 9.751 15.936 9.863 15.674 Q 9.734 15.372 9.719 14.955 A 3.089 3.089 0 0 1 9.717 14.844 A 3.564 3.564 0 0 1 10.312 12.881 A 4.472 4.472 0 0 1 10.474 12.647 A 16.423 16.423 0 0 0 11.075 11.777 Q 11.358 11.338 11.574 10.929 A 9.24 9.24 0 0 0 11.67 10.742 A 0.157 0.157 0 0 0 11.693 10.712 Q 11.725 10.656 11.767 10.53 A 3.209 3.209 0 0 0 11.792 10.449 A 8.862 8.862 0 0 1 11.893 10.135 A 10.512 10.512 0 0 1 11.963 9.937 A 22.545 22.545 0 0 0 12.054 9.68 A 16.462 16.462 0 0 0 12.134 9.448 A 2.803 2.803 0 0 1 12.16 9.372 Q 12.204 9.253 12.238 9.203 A 0.153 0.153 0 0 1 12.256 9.18 L 12.598 8.838 L 13.257 8.179 A 27.977 27.977 0 0 1 13.749 7.698 A 23.884 23.884 0 0 1 13.965 7.495 A 12.29 12.29 0 0 1 14.114 7.358 Q 14.325 7.17 14.436 7.092 A 0.949 0.949 0 0 1 14.453 7.08 A 0.176 0.176 0 0 1 14.464 7.027 Q 14.504 6.907 14.691 6.626 A 7.117 7.117 0 0 1 14.697 6.616 Q 14.907 6.301 15.009 6.185 A 0.669 0.669 0 0 1 15.039 6.152 Q 15.674 5.371 16.65 4.614 Q 17.627 3.857 18.726 3.198 Q 19.824 2.539 20.947 2.026 A 21.937 21.937 0 0 1 21.957 1.594 Q 22.505 1.376 22.998 1.221 L 23.877 1.221 A 577.438 577.438 0 0 0 29.785 0.415 A 42.773 42.773 0 0 1 35.791 0 A 33.472 33.472 0 0 1 36.255 0.003 Q 36.785 0.01 37.174 0.036 A 9.81 9.81 0 0 1 37.354 0.049 A 4.677 4.677 0 0 1 38.031 0.154 A 3.866 3.866 0 0 1 38.428 0.269 A 3.966 3.966 0 0 1 39.205 0.643 A 4.55 4.55 0 0 1 39.38 0.757 A 20.805 20.805 0 0 0 39.632 0.926 Q 40.039 1.196 40.625 1.563 A 574.378 574.378 0 0 0 40.999 1.796 Q 41.499 2.108 41.867 2.336 A 195.029 195.029 0 0 0 41.919 2.368 A 4.145 4.145 0 0 1 42.435 2.743 A 3.308 3.308 0 0 1 42.773 3.076 A 2.209 2.209 0 0 1 43.182 3.775 A 2.713 2.713 0 0 1 43.262 4.028 A 3.784 3.784 0 0 1 43.345 4.458 Q 43.408 4.909 43.408 5.518 A 4.631 4.631 0 0 1 43.066 7.251 Q 42.725 8.106 42.114 8.765 A 4.549 4.549 0 0 1 40.649 9.814 Q 39.795 10.205 38.818 10.205 A 4.77 4.77 0 0 1 37.475 10.023 A 4.002 4.002 0 0 1 36.353 9.497 A 13.459 13.459 0 0 1 34.472 7.957 A 14.895 14.895 0 0 1 34.351 7.837 Q 33.398 6.885 32.446 5.957 A 5.993 5.993 0 0 0 30.273 4.59 A 4.684 4.684 0 0 0 29.345 4.358 A 4.091 4.091 0 0 0 28.931 4.321 A 36.285 36.285 0 0 0 27.588 4.297 L 26.416 4.297 L 24.121 4.297 A 0.153 0.153 0 0 1 24.079 4.345 Q 24.004 4.406 23.816 4.466 A 2.672 2.672 0 0 1 23.731 4.492 A 7.593 7.593 0 0 1 23.611 4.525 Q 23.426 4.575 23.336 4.586 A 0.367 0.367 0 0 1 23.291 4.59 A 20.005 20.005 0 0 0 21.729 5.151 A 9.408 9.408 0 0 0 20.561 5.719 A 8.388 8.388 0 0 0 20.288 5.884 A 5.665 5.665 0 0 0 19.116 6.86 A 3.043 3.043 0 0 0 18.421 8.155 A 3.563 3.563 0 0 0 18.408 8.203 Q 18.311 8.447 18.189 8.984 A 51.964 51.964 0 0 1 17.992 9.818 A 59.575 59.575 0 0 1 17.92 10.107 A 38.133 38.133 0 0 0 17.651 11.255 A 9.708 9.708 0 0 1 17.596 11.498 Q 17.513 11.836 17.443 11.989 A 0.762 0.762 0 0 1 17.432 12.012 Q 17.432 12.496 17.408 13.483 A 157.93 157.93 0 0 1 17.407 13.501 A 337.787 337.787 0 0 0 17.386 14.433 Q 17.376 14.909 17.365 15.438 A 577.59 577.59 0 0 0 17.358 15.796 A 1614.035 1614.035 0 0 0 17.322 17.806 A 1845.166 1845.166 0 0 0 17.31 18.506 A 1726.85 1726.85 0 0 1 17.273 20.561 A 1506.593 1506.593 0 0 1 17.261 21.216 Q 17.238 22.424 17.194 23.398 A 58.218 58.218 0 0 1 17.188 23.535 A 73.949 73.949 0 0 0 17.166 24.014 Q 17.139 24.683 17.139 25.049 L 17.139 27.979 L 17.139 30.957 Q 17.279 31.332 17.78 31.415 A 1.54 1.54 0 0 0 17.822 31.421 Q 18.359 31.494 18.897 31.494 L 19.971 31.494 A 62.08 62.08 0 0 0 24.243 31.348 A 61.373 61.373 0 0 1 28.467 31.201 A 1.876 1.876 0 0 1 28.914 31.251 A 1.083 1.083 0 0 1 29.663 31.836 A 3.031 3.031 0 0 1 29.969 32.964 A 3.656 3.656 0 0 1 29.981 33.252 A 1.341 1.341 0 0 1 29.969 33.421 Q 29.946 33.597 29.881 33.833 A 5.082 5.082 0 0 1 29.858 33.911 A 8.419 8.419 0 0 1 29.565 34.741 A 3.395 3.395 0 0 1 29.323 35.222 A 2.869 2.869 0 0 1 29.15 35.474 A 1.633 1.633 0 0 1 29.046 35.597 Q 28.926 35.724 28.819 35.768 A 0.286 0.286 0 0 1 28.711 35.791 L 19.629 35.791 Q 19.241 35.791 18.739 35.956 A 5.479 5.479 0 0 0 18.335 36.108 A 20.181 20.181 0 0 0 17.893 36.3 Q 17.471 36.489 17.18 36.648 A 5.861 5.861 0 0 0 17.139 36.67 A 31.969 31.969 0 0 0 17.142 37.07 Q 17.15 37.705 17.18 38.818 A 290.18 290.18 0 0 0 17.188 39.087 A 119.463 119.463 0 0 1 17.224 40.887 A 148.16 148.16 0 0 1 17.236 42.822 A 148.16 148.16 0 0 1 17.224 44.757 A 119.463 119.463 0 0 1 17.188 46.558 A 247.224 247.224 0 0 0 17.166 47.347 Q 17.142 48.342 17.139 48.859 A 22.84 22.84 0 0 0 17.139 48.975 Q 17.139 49.066 17.096 49.435 A 28.438 28.438 0 0 1 17.09 49.487 A 36.23 36.23 0 0 0 17.041 49.927 A 49.533 49.533 0 0 0 16.992 50.415 A 68.545 68.545 0 0 1 16.943 50.909 A 54.542 54.542 0 0 1 16.895 51.367 Q 16.852 51.746 16.847 51.907 A 1.289 1.289 0 0 0 16.846 51.953 L 16.846 52.1 A 38.317 38.317 0 0 0 16.992 55.469 A 38.317 38.317 0 0 1 17.139 58.838 A 32.685 32.685 0 0 1 16.992 61.939 A 32.685 32.685 0 0 0 16.846 65.039 A 56.482 56.482 0 0 0 16.855 66.094 Q 16.864 66.575 16.882 67.005 A 32.086 32.086 0 0 0 16.895 67.285 Q 16.943 68.262 17.139 69.678 A 0.715 0.715 0 0 0 17.454 70.011 Q 17.696 70.148 18.09 70.188 A 2.891 2.891 0 0 0 18.115 70.19 A 148.012 148.012 0 0 0 18.921 70.264 A 176.351 176.351 0 0 0 19.775 70.337 Q 20.654 70.41 21.411 70.606 A 1.511 1.511 0 0 1 21.816 70.77 A 1.054 1.054 0 0 1 22.315 71.484 A 0.278 0.278 0 0 1 22.328 71.565 Q 22.332 71.688 22.241 71.851 A 2.398 2.398 0 0 1 21.948 72.266 A 8.397 8.397 0 0 1 21.788 72.443 Q 21.712 72.526 21.64 72.598 A 5.063 5.063 0 0 1 21.631 72.607 Q 21.517 72.721 21.463 72.747 A 0.067 0.067 0 0 1 21.436 72.754 L 20.02 72.754 A 35.892 35.892 0 0 1 16.26 72.559 A 36.36 36.36 0 0 0 12.908 72.366 A 40.472 40.472 0 0 0 12.402 72.363 A 167.223 167.223 0 0 0 8.374 72.412 Q 6.348 72.461 4.346 72.754 Q 4.304 72.754 4.119 72.79 A 10.803 10.803 0 0 0 4.053 72.803 Q 3.809 72.852 3.54 72.876 A 4.44 4.44 0 0 0 3.284 72.907 A 3.385 3.385 0 0 0 3.052 72.949 A 7.583 7.583 0 0 1 2.975 72.966 Q 2.825 72.998 2.785 72.998 A 0.106 0.106 0 0 1 2.783 72.998 L 2.637 72.998 A 4.956 4.956 0 0 1 1.27 72.803 Q 0.756 72.656 0.628 72.151 A 1.525 1.525 0 0 1 0.586 71.777 A 1.405 1.405 0 0 1 0.681 71.247 Q 0.882 70.748 1.514 70.532 A 8.671 8.671 0 0 1 2.453 70.272 Q 2.945 70.164 3.502 70.091 A 14.8 14.8 0 0 1 3.687 70.068 A 43.724 43.724 0 0 0 6.177 69.702 A 4.242 4.242 0 0 0 6.985 69.481 Q 7.461 69.295 7.807 68.999 A 2.388 2.388 0 0 0 8.057 68.75 Q 7.959 68.359 7.959 68.018 L 7.959 67.285 Q 7.959 65.234 8.301 63.135 Q 8.643 61.035 8.643 58.887 Z" vector-effect="non-scaling-stroke"/></g></svg>